# xmcd CD database file generated by Grip 3.0.3
# 
# Track frame offsets:
#       150
#       13412
#       24170
#       40392
#       54980
#       65825
#       83535
#       93535
#       105212
#       117662
#       130615
#       150137
#       163167
#       175170
#       185515
#       197137
#       206522
#       219985
#       231345
#       244740
#       258005
# 
# Disc length: 3568 seconds
# 
# Revision: 2
# Processed by: cddbd v1.4PL0 Copyright (c) Steve Scherf et al.
# Submitted via: Grip 3.0.3
# 
DISCID=140dee15
DTITLE=Various Artist - Sweet Soul Music Volume 2
DYEAR=1900
DGENRE=Blues
TTITLE0=Sam and Dave - Soul Man
TTITLE1=Brook Benton - Thank You Pretty Baby
TTITLE2=James Brown - I Got The Feeling
TTITLE3=Percy Sledge - Warm And Tender Love
TTITLE4=Drifters - Dance With Me
TTITLE5=Brook Benton - Rainy Night In Georgia
TTITLE6=James Brown - Papa's Got A Brand New Bag
TTITLE7=Sam and Dave - Soul Sister Brown Sugar
TTITLE8=Archie Bell and Drells - Tighten Up
TTITLE9=Dobie Grey - The In Crowd
TTITLE10=James Brown - Sex Machine
TTITLE11=Sam and Dave - I Thank You
TTITLE12=Maxine Brown - Oh No Not My Baby
TTITLE13=Brook Benton - Fools Rush In
TTITLE14=Drifters - Up On The Roof
TTITLE15=Gladys Knight - Every Beat Of My Heart
TTITLE16=Ben E King - Spanish Harlem
TTITLE17=Brook Benton - So Many Ways
TTITLE18=Percy Sledge - When A Man Loves A Woman
TTITLE19=Drifters - On Broadway
TTITLE20=James Brown - Please Please Please
EXTD=
EXTT0=
EXTT1=
EXTT2=
EXTT3=
EXTT4=
EXTT5=
EXTT6=
EXTT7=
EXTT8=
EXTT9=
EXTT10=
EXTT11=
EXTT12=
EXTT13=
EXTT14=
EXTT15=
EXTT16=
EXTT17=
EXTT18=
EXTT19=
EXTT20=
PLAYORDER=
